<mxfile host="app.diagrams.net" agent="Mozilla/5.0 (X11; Ubuntu; Linux x86_64; rv:136.0) Gecko/20100101 Firefox/136.0" version="27.0.6">
  <diagram id="prtHgNgQTEPvFCAcTncT" name="Page-1">
    <mxGraphModel dx="1123" dy="701" grid="1" gridSize="10" guides="1" tooltips="1" connect="1" arrows="1" fold="1" page="1" pageScale="1" pageWidth="827" pageHeight="1169" math="0" shadow="0">
      <root>
        <mxCell id="0" />
        <mxCell id="1" parent="0" />
        <mxCell id="dNxyNK7c78bLwvsdeMH5-19" value="" style="swimlane;html=1;childLayout=stackLayout;resizeParent=1;resizeParentMax=0;horizontal=0;startSize=20;horizontalStack=0;" parent="1" vertex="1">
          <mxGeometry x="120" y="120" width="960" height="660" as="geometry" />
        </mxCell>
        <mxCell id="dNxyNK7c78bLwvsdeMH5-20" value="Makefile" style="swimlane;html=1;startSize=20;horizontal=0;" parent="dNxyNK7c78bLwvsdeMH5-19" vertex="1">
          <mxGeometry x="20" width="940" height="290" as="geometry" />
        </mxCell>
        <mxCell id="dNxyNK7c78bLwvsdeMH5-25" value="" style="edgeStyle=orthogonalEdgeStyle;rounded=0;orthogonalLoop=1;jettySize=auto;html=1;fontSize=11;entryX=0;entryY=0.5;entryDx=0;entryDy=0;" parent="dNxyNK7c78bLwvsdeMH5-20" source="dNxyNK7c78bLwvsdeMH5-23" target="dNxyNK7c78bLwvsdeMH5-30" edge="1">
          <mxGeometry relative="1" as="geometry">
            <mxPoint x="119.99999999999989" y="60.04347826086962" as="targetPoint" />
          </mxGeometry>
        </mxCell>
        <mxCell id="dNxyNK7c78bLwvsdeMH5-23" value="make download_data" style="ellipse;whiteSpace=wrap;html=1;fillColor=#d5e8d4;gradientColor=#97d077;strokeColor=#82b366;labelPosition=center;verticalLabelPosition=top;align=center;verticalAlign=bottom;" parent="dNxyNK7c78bLwvsdeMH5-20" vertex="1">
          <mxGeometry x="50" y="40" width="40" height="40" as="geometry" />
        </mxCell>
        <mxCell id="033Ey61BHcnlwMV0V1Kq-3" style="edgeStyle=orthogonalEdgeStyle;rounded=0;orthogonalLoop=1;jettySize=auto;html=1;fontSize=11;" parent="dNxyNK7c78bLwvsdeMH5-20" source="dNxyNK7c78bLwvsdeMH5-30" target="033Ey61BHcnlwMV0V1Kq-2" edge="1">
          <mxGeometry relative="1" as="geometry" />
        </mxCell>
        <mxCell id="dNxyNK7c78bLwvsdeMH5-30" value="make QC" style="rounded=1;whiteSpace=wrap;html=1;fontFamily=Helvetica;fontSize=11;fontColor=#000000;align=center;" parent="dNxyNK7c78bLwvsdeMH5-20" vertex="1">
          <mxGeometry x="140" y="30" width="80" height="60" as="geometry" />
        </mxCell>
        <mxCell id="033Ey61BHcnlwMV0V1Kq-12" style="edgeStyle=orthogonalEdgeStyle;rounded=0;orthogonalLoop=1;jettySize=auto;html=1;exitX=1;exitY=0.5;exitDx=0;exitDy=0;entryX=0;entryY=0.5;entryDx=0;entryDy=0;" parent="dNxyNK7c78bLwvsdeMH5-20" source="033Ey61BHcnlwMV0V1Kq-2" target="033Ey61BHcnlwMV0V1Kq-4" edge="1">
          <mxGeometry relative="1" as="geometry" />
        </mxCell>
        <mxCell id="033Ey61BHcnlwMV0V1Kq-2" value="make trim" style="rounded=1;whiteSpace=wrap;html=1;fontFamily=Helvetica;fontSize=11;fontColor=#000000;align=center;glass=0;shadow=0;" parent="dNxyNK7c78bLwvsdeMH5-20" vertex="1">
          <mxGeometry x="310" y="30" width="80" height="60" as="geometry" />
        </mxCell>
        <mxCell id="033Ey61BHcnlwMV0V1Kq-95" style="edgeStyle=orthogonalEdgeStyle;rounded=0;orthogonalLoop=1;jettySize=auto;html=1;entryX=0;entryY=0.5;entryDx=0;entryDy=0;" parent="dNxyNK7c78bLwvsdeMH5-20" source="033Ey61BHcnlwMV0V1Kq-4" target="033Ey61BHcnlwMV0V1Kq-5" edge="1">
          <mxGeometry relative="1" as="geometry" />
        </mxCell>
        <mxCell id="033Ey61BHcnlwMV0V1Kq-4" value="make QC_after" style="rounded=1;whiteSpace=wrap;html=1;fontFamily=Helvetica;fontSize=11;fontColor=#000000;align=center;glass=0;shadow=0;" parent="dNxyNK7c78bLwvsdeMH5-20" vertex="1">
          <mxGeometry x="460" y="30" width="80" height="60" as="geometry" />
        </mxCell>
        <mxCell id="033Ey61BHcnlwMV0V1Kq-81" style="edgeStyle=orthogonalEdgeStyle;rounded=0;orthogonalLoop=1;jettySize=auto;html=1;exitX=1;exitY=0.5;exitDx=0;exitDy=0;entryX=0;entryY=0.5;entryDx=0;entryDy=0;" parent="dNxyNK7c78bLwvsdeMH5-20" source="033Ey61BHcnlwMV0V1Kq-5" target="033Ey61BHcnlwMV0V1Kq-69" edge="1">
          <mxGeometry relative="1" as="geometry" />
        </mxCell>
        <mxCell id="033Ey61BHcnlwMV0V1Kq-5" value="make upload_to_ftp" style="rounded=1;whiteSpace=wrap;html=1;fontFamily=Helvetica;fontSize=11;fontColor=#000000;align=center;glass=0;shadow=0;" parent="dNxyNK7c78bLwvsdeMH5-20" vertex="1">
          <mxGeometry x="590" y="30" width="80" height="60" as="geometry" />
        </mxCell>
        <mxCell id="033Ey61BHcnlwMV0V1Kq-84" style="edgeStyle=orthogonalEdgeStyle;rounded=0;orthogonalLoop=1;jettySize=auto;html=1;entryX=0.5;entryY=0;entryDx=0;entryDy=0;" parent="dNxyNK7c78bLwvsdeMH5-20" source="033Ey61BHcnlwMV0V1Kq-69" target="033Ey61BHcnlwMV0V1Kq-71" edge="1">
          <mxGeometry relative="1" as="geometry">
            <Array as="points">
              <mxPoint x="755" y="100" />
              <mxPoint x="95" y="100" />
            </Array>
          </mxGeometry>
        </mxCell>
        <mxCell id="033Ey61BHcnlwMV0V1Kq-69" value="&lt;p dir=&quot;auto&quot;&gt;make upload_to_galaxy&lt;/p&gt;" style="rounded=1;whiteSpace=wrap;html=1;fontFamily=Helvetica;fontSize=11;fontColor=#000000;align=center;glass=0;shadow=0;" parent="dNxyNK7c78bLwvsdeMH5-20" vertex="1">
          <mxGeometry x="710" y="30" width="90" height="60" as="geometry" />
        </mxCell>
        <mxCell id="033Ey61BHcnlwMV0V1Kq-70" style="edgeStyle=orthogonalEdgeStyle;rounded=0;orthogonalLoop=1;jettySize=auto;html=1;" parent="dNxyNK7c78bLwvsdeMH5-20" source="033Ey61BHcnlwMV0V1Kq-71" target="033Ey61BHcnlwMV0V1Kq-73" edge="1">
          <mxGeometry relative="1" as="geometry" />
        </mxCell>
        <mxCell id="033Ey61BHcnlwMV0V1Kq-71" value="&lt;p dir=&quot;auto&quot;&gt;make assemble&lt;/p&gt;" style="rounded=1;whiteSpace=wrap;html=1;fontFamily=Helvetica;fontSize=11;fontColor=#000000;align=center;glass=0;shadow=0;" parent="dNxyNK7c78bLwvsdeMH5-20" vertex="1">
          <mxGeometry x="55" y="120" width="80" height="60" as="geometry" />
        </mxCell>
        <mxCell id="033Ey61BHcnlwMV0V1Kq-72" style="edgeStyle=orthogonalEdgeStyle;rounded=0;orthogonalLoop=1;jettySize=auto;html=1;exitX=1;exitY=0.5;exitDx=0;exitDy=0;entryX=0;entryY=0.5;entryDx=0;entryDy=0;" parent="dNxyNK7c78bLwvsdeMH5-20" source="033Ey61BHcnlwMV0V1Kq-73" target="033Ey61BHcnlwMV0V1Kq-75" edge="1">
          <mxGeometry relative="1" as="geometry" />
        </mxCell>
        <mxCell id="033Ey61BHcnlwMV0V1Kq-73" value="&lt;p dir=&quot;auto&quot;&gt;make assembly_qc&lt;/p&gt;" style="rounded=1;whiteSpace=wrap;html=1;fontFamily=Helvetica;fontSize=11;fontColor=#000000;align=center;glass=0;shadow=0;" parent="dNxyNK7c78bLwvsdeMH5-20" vertex="1">
          <mxGeometry x="180" y="120" width="80" height="60" as="geometry" />
        </mxCell>
        <mxCell id="033Ey61BHcnlwMV0V1Kq-85" style="edgeStyle=orthogonalEdgeStyle;rounded=0;orthogonalLoop=1;jettySize=auto;html=1;entryX=0;entryY=0.5;entryDx=0;entryDy=0;" parent="dNxyNK7c78bLwvsdeMH5-20" source="033Ey61BHcnlwMV0V1Kq-75" target="033Ey61BHcnlwMV0V1Kq-77" edge="1">
          <mxGeometry relative="1" as="geometry" />
        </mxCell>
        <mxCell id="033Ey61BHcnlwMV0V1Kq-75" value="&lt;p dir=&quot;auto&quot;&gt;make download_assembly_qc&lt;/p&gt;" style="rounded=1;whiteSpace=wrap;html=1;fontFamily=Helvetica;fontSize=11;fontColor=#000000;align=center;glass=0;shadow=0;" parent="dNxyNK7c78bLwvsdeMH5-20" vertex="1">
          <mxGeometry x="300" y="120" width="120" height="60" as="geometry" />
        </mxCell>
        <mxCell id="033Ey61BHcnlwMV0V1Kq-76" style="edgeStyle=orthogonalEdgeStyle;rounded=0;orthogonalLoop=1;jettySize=auto;html=1;" parent="dNxyNK7c78bLwvsdeMH5-20" source="033Ey61BHcnlwMV0V1Kq-77" target="033Ey61BHcnlwMV0V1Kq-79" edge="1">
          <mxGeometry relative="1" as="geometry" />
        </mxCell>
        <mxCell id="033Ey61BHcnlwMV0V1Kq-77" value="&lt;p dir=&quot;auto&quot;&gt;make taxonomy_one&lt;/p&gt;" style="rounded=1;whiteSpace=wrap;html=1;fontFamily=Helvetica;fontSize=11;fontColor=#000000;align=center;glass=0;shadow=0;" parent="dNxyNK7c78bLwvsdeMH5-20" vertex="1">
          <mxGeometry x="450" y="120" width="80" height="60" as="geometry" />
        </mxCell>
        <mxCell id="033Ey61BHcnlwMV0V1Kq-83" style="edgeStyle=orthogonalEdgeStyle;rounded=0;orthogonalLoop=1;jettySize=auto;html=1;exitX=1;exitY=0.5;exitDx=0;exitDy=0;entryX=0;entryY=0.5;entryDx=0;entryDy=0;" parent="dNxyNK7c78bLwvsdeMH5-20" source="033Ey61BHcnlwMV0V1Kq-79" target="033Ey61BHcnlwMV0V1Kq-80" edge="1">
          <mxGeometry relative="1" as="geometry">
            <mxPoint x="715" y="200" as="targetPoint" />
          </mxGeometry>
        </mxCell>
        <mxCell id="033Ey61BHcnlwMV0V1Kq-79" value="&lt;p dir=&quot;auto&quot;&gt;make taxonomy_translate&lt;/p&gt;" style="rounded=1;whiteSpace=wrap;html=1;fontFamily=Helvetica;fontSize=11;fontColor=#000000;align=center;glass=0;shadow=0;" parent="dNxyNK7c78bLwvsdeMH5-20" vertex="1">
          <mxGeometry x="555" y="120" width="100" height="60" as="geometry" />
        </mxCell>
        <mxCell id="033Ey61BHcnlwMV0V1Kq-117" style="edgeStyle=orthogonalEdgeStyle;rounded=0;orthogonalLoop=1;jettySize=auto;html=1;entryX=0.5;entryY=0;entryDx=0;entryDy=0;" parent="dNxyNK7c78bLwvsdeMH5-20" source="033Ey61BHcnlwMV0V1Kq-80" target="033Ey61BHcnlwMV0V1Kq-115" edge="1">
          <mxGeometry relative="1" as="geometry">
            <Array as="points">
              <mxPoint x="740" y="200" />
            </Array>
          </mxGeometry>
        </mxCell>
        <mxCell id="033Ey61BHcnlwMV0V1Kq-80" value="&lt;p dir=&quot;auto&quot;&gt;make download_taxonomy&lt;/p&gt;" style="rounded=1;whiteSpace=wrap;html=1;fontFamily=Helvetica;fontSize=11;fontColor=#000000;align=center;glass=0;shadow=0;" parent="dNxyNK7c78bLwvsdeMH5-20" vertex="1">
          <mxGeometry x="690" y="120" width="110" height="60" as="geometry" />
        </mxCell>
        <mxCell id="033Ey61BHcnlwMV0V1Kq-119" style="edgeStyle=orthogonalEdgeStyle;rounded=0;orthogonalLoop=1;jettySize=auto;html=1;" parent="dNxyNK7c78bLwvsdeMH5-20" source="033Ey61BHcnlwMV0V1Kq-115" target="033Ey61BHcnlwMV0V1Kq-118" edge="1">
          <mxGeometry relative="1" as="geometry" />
        </mxCell>
        <mxCell id="033Ey61BHcnlwMV0V1Kq-115" value="&lt;p dir=&quot;auto&quot;&gt;make taxonomy_result&lt;/p&gt;" style="rounded=1;whiteSpace=wrap;html=1;fontFamily=Helvetica;fontSize=11;fontColor=#000000;align=center;glass=0;shadow=0;" parent="dNxyNK7c78bLwvsdeMH5-20" vertex="1">
          <mxGeometry x="55" y="220" width="110" height="60" as="geometry" />
        </mxCell>
        <mxCell id="033Ey61BHcnlwMV0V1Kq-118" value="Pabaiga" style="ellipse;whiteSpace=wrap;html=1;fillColor=#f8cecc;gradientColor=#ea6b66;strokeColor=#b85450;labelPosition=center;verticalLabelPosition=top;align=center;verticalAlign=bottom;" parent="dNxyNK7c78bLwvsdeMH5-20" vertex="1">
          <mxGeometry x="220" y="230" width="40" height="40" as="geometry" />
        </mxCell>
        <mxCell id="dNxyNK7c78bLwvsdeMH5-21" value="Vietiniai resursai" style="swimlane;html=1;startSize=20;horizontal=0;" parent="dNxyNK7c78bLwvsdeMH5-19" vertex="1">
          <mxGeometry x="20" y="290" width="940" height="240" as="geometry" />
        </mxCell>
        <mxCell id="033Ey61BHcnlwMV0V1Kq-102" style="edgeStyle=orthogonalEdgeStyle;rounded=0;orthogonalLoop=1;jettySize=auto;html=1;exitX=1;exitY=0.5;exitDx=0;exitDy=0;entryX=0;entryY=0.5;entryDx=0;entryDy=0;" parent="dNxyNK7c78bLwvsdeMH5-21" source="033Ey61BHcnlwMV0V1Kq-86" target="033Ey61BHcnlwMV0V1Kq-87" edge="1">
          <mxGeometry relative="1" as="geometry" />
        </mxCell>
        <mxCell id="033Ey61BHcnlwMV0V1Kq-86" value="esearch, efetch" style="rounded=1;whiteSpace=wrap;html=1;fontFamily=Helvetica;fontSize=11;fontColor=#000000;align=center;" parent="dNxyNK7c78bLwvsdeMH5-21" vertex="1">
          <mxGeometry x="60" y="40" width="80" height="60" as="geometry" />
        </mxCell>
        <mxCell id="033Ey61BHcnlwMV0V1Kq-103" style="edgeStyle=orthogonalEdgeStyle;rounded=0;orthogonalLoop=1;jettySize=auto;html=1;exitX=1;exitY=0.5;exitDx=0;exitDy=0;entryX=0;entryY=0.5;entryDx=0;entryDy=0;" parent="dNxyNK7c78bLwvsdeMH5-21" target="033Ey61BHcnlwMV0V1Kq-88" edge="1">
          <mxGeometry relative="1" as="geometry">
            <mxPoint x="250" y="70" as="sourcePoint" />
          </mxGeometry>
        </mxCell>
        <mxCell id="033Ey61BHcnlwMV0V1Kq-87" value="Prefetch" style="rounded=1;whiteSpace=wrap;html=1;fontFamily=Helvetica;fontSize=11;fontColor=#000000;align=center;" parent="dNxyNK7c78bLwvsdeMH5-21" vertex="1">
          <mxGeometry x="190" y="40" width="80" height="60" as="geometry" />
        </mxCell>
        <mxCell id="033Ey61BHcnlwMV0V1Kq-104" style="edgeStyle=orthogonalEdgeStyle;rounded=0;orthogonalLoop=1;jettySize=auto;html=1;exitX=1;exitY=0.5;exitDx=0;exitDy=0;entryX=0;entryY=0.5;entryDx=0;entryDy=0;" parent="dNxyNK7c78bLwvsdeMH5-21" target="033Ey61BHcnlwMV0V1Kq-89" edge="1">
          <mxGeometry relative="1" as="geometry">
            <mxPoint x="390" y="70" as="sourcePoint" />
          </mxGeometry>
        </mxCell>
        <mxCell id="033Ey61BHcnlwMV0V1Kq-131" style="edgeStyle=orthogonalEdgeStyle;rounded=0;orthogonalLoop=1;jettySize=auto;html=1;exitX=1;exitY=0.5;exitDx=0;exitDy=0;entryX=0;entryY=0.5;entryDx=0;entryDy=0;" parent="dNxyNK7c78bLwvsdeMH5-21" source="033Ey61BHcnlwMV0V1Kq-88" target="033Ey61BHcnlwMV0V1Kq-89" edge="1">
          <mxGeometry relative="1" as="geometry" />
        </mxCell>
        <mxCell id="033Ey61BHcnlwMV0V1Kq-88" value="fasterq-dump" style="rounded=1;whiteSpace=wrap;html=1;fontFamily=Helvetica;fontSize=11;fontColor=#000000;align=center;" parent="dNxyNK7c78bLwvsdeMH5-21" vertex="1">
          <mxGeometry x="300" y="40" width="80" height="60" as="geometry" />
        </mxCell>
        <mxCell id="033Ey61BHcnlwMV0V1Kq-105" style="edgeStyle=orthogonalEdgeStyle;rounded=0;orthogonalLoop=1;jettySize=auto;html=1;exitX=1;exitY=0.5;exitDx=0;exitDy=0;entryX=0;entryY=0.5;entryDx=0;entryDy=0;" parent="dNxyNK7c78bLwvsdeMH5-21" source="033Ey61BHcnlwMV0V1Kq-89" target="033Ey61BHcnlwMV0V1Kq-90" edge="1">
          <mxGeometry relative="1" as="geometry" />
        </mxCell>
        <mxCell id="033Ey61BHcnlwMV0V1Kq-89" value="pigz" style="rounded=1;whiteSpace=wrap;html=1;fontFamily=Helvetica;fontSize=11;fontColor=#000000;align=center;" parent="dNxyNK7c78bLwvsdeMH5-21" vertex="1">
          <mxGeometry x="410" y="40" width="80" height="60" as="geometry" />
        </mxCell>
        <mxCell id="033Ey61BHcnlwMV0V1Kq-106" style="edgeStyle=orthogonalEdgeStyle;rounded=0;orthogonalLoop=1;jettySize=auto;html=1;exitX=1;exitY=0.5;exitDx=0;exitDy=0;" parent="dNxyNK7c78bLwvsdeMH5-21" source="033Ey61BHcnlwMV0V1Kq-90" target="033Ey61BHcnlwMV0V1Kq-91" edge="1">
          <mxGeometry relative="1" as="geometry" />
        </mxCell>
        <mxCell id="033Ey61BHcnlwMV0V1Kq-90" value="FastQC" style="rounded=1;whiteSpace=wrap;html=1;fontFamily=Helvetica;fontSize=11;fontColor=#000000;align=center;" parent="dNxyNK7c78bLwvsdeMH5-21" vertex="1">
          <mxGeometry x="510" y="40" width="80" height="60" as="geometry" />
        </mxCell>
        <mxCell id="033Ey61BHcnlwMV0V1Kq-107" style="edgeStyle=orthogonalEdgeStyle;rounded=0;orthogonalLoop=1;jettySize=auto;html=1;exitX=1;exitY=0.5;exitDx=0;exitDy=0;entryX=0;entryY=0.5;entryDx=0;entryDy=0;" parent="dNxyNK7c78bLwvsdeMH5-21" source="033Ey61BHcnlwMV0V1Kq-91" target="033Ey61BHcnlwMV0V1Kq-92" edge="1">
          <mxGeometry relative="1" as="geometry" />
        </mxCell>
        <mxCell id="033Ey61BHcnlwMV0V1Kq-91" value="MultiQC" style="rounded=1;whiteSpace=wrap;html=1;fontFamily=Helvetica;fontSize=11;fontColor=#000000;align=center;" parent="dNxyNK7c78bLwvsdeMH5-21" vertex="1">
          <mxGeometry x="620" y="40" width="80" height="60" as="geometry" />
        </mxCell>
        <mxCell id="033Ey61BHcnlwMV0V1Kq-97" value="MultiQC" style="rounded=1;whiteSpace=wrap;html=1;fontFamily=Helvetica;fontSize=11;fontColor=#000000;align=center;" parent="dNxyNK7c78bLwvsdeMH5-21" vertex="1">
          <mxGeometry x="50" y="150" width="80" height="60" as="geometry" />
        </mxCell>
        <mxCell id="033Ey61BHcnlwMV0V1Kq-108" style="edgeStyle=orthogonalEdgeStyle;rounded=0;orthogonalLoop=1;jettySize=auto;html=1;exitX=1;exitY=0.5;exitDx=0;exitDy=0;entryX=0;entryY=0.5;entryDx=0;entryDy=0;" parent="dNxyNK7c78bLwvsdeMH5-21" source="033Ey61BHcnlwMV0V1Kq-92" target="033Ey61BHcnlwMV0V1Kq-96" edge="1">
          <mxGeometry relative="1" as="geometry" />
        </mxCell>
        <mxCell id="033Ey61BHcnlwMV0V1Kq-92" value="fastp" style="rounded=1;whiteSpace=wrap;html=1;fontFamily=Helvetica;fontSize=11;fontColor=#000000;align=center;" parent="dNxyNK7c78bLwvsdeMH5-21" vertex="1">
          <mxGeometry x="720" y="40" width="80" height="60" as="geometry" />
        </mxCell>
        <mxCell id="033Ey61BHcnlwMV0V1Kq-109" style="edgeStyle=orthogonalEdgeStyle;rounded=0;orthogonalLoop=1;jettySize=auto;html=1;exitX=0.5;exitY=1;exitDx=0;exitDy=0;entryX=0.5;entryY=0;entryDx=0;entryDy=0;" parent="dNxyNK7c78bLwvsdeMH5-21" source="033Ey61BHcnlwMV0V1Kq-96" target="033Ey61BHcnlwMV0V1Kq-97" edge="1">
          <mxGeometry relative="1" as="geometry" />
        </mxCell>
        <mxCell id="033Ey61BHcnlwMV0V1Kq-96" value="FastQC" style="rounded=1;whiteSpace=wrap;html=1;fontFamily=Helvetica;fontSize=11;fontColor=#000000;align=center;" parent="dNxyNK7c78bLwvsdeMH5-21" vertex="1">
          <mxGeometry x="820" y="40" width="80" height="60" as="geometry" />
        </mxCell>
        <mxCell id="033Ey61BHcnlwMV0V1Kq-120" value="&lt;div&gt;Top 10 &lt;br&gt;&lt;/div&gt;&lt;div&gt;skaičiavimas&lt;/div&gt;" style="rounded=1;whiteSpace=wrap;html=1;fontFamily=Helvetica;fontSize=11;fontColor=#000000;align=center;" parent="dNxyNK7c78bLwvsdeMH5-21" vertex="1">
          <mxGeometry x="490" y="145" width="80" height="60" as="geometry" />
        </mxCell>
        <mxCell id="033Ey61BHcnlwMV0V1Kq-67" value="Galaxy" style="swimlane;html=1;startSize=20;horizontal=0;" parent="dNxyNK7c78bLwvsdeMH5-19" vertex="1">
          <mxGeometry x="20" y="530" width="940" height="130" as="geometry" />
        </mxCell>
        <mxCell id="033Ey61BHcnlwMV0V1Kq-111" style="edgeStyle=orthogonalEdgeStyle;rounded=0;orthogonalLoop=1;jettySize=auto;html=1;entryX=0;entryY=0.5;entryDx=0;entryDy=0;" parent="033Ey61BHcnlwMV0V1Kq-67" source="033Ey61BHcnlwMV0V1Kq-98" target="033Ey61BHcnlwMV0V1Kq-99" edge="1">
          <mxGeometry relative="1" as="geometry" />
        </mxCell>
        <mxCell id="033Ey61BHcnlwMV0V1Kq-98" value="MEGAHIT" style="rounded=1;whiteSpace=wrap;html=1;fontFamily=Helvetica;fontSize=11;fontColor=#000000;align=center;" parent="033Ey61BHcnlwMV0V1Kq-67" vertex="1">
          <mxGeometry x="50" y="40" width="80" height="60" as="geometry" />
        </mxCell>
        <mxCell id="033Ey61BHcnlwMV0V1Kq-112" style="edgeStyle=orthogonalEdgeStyle;rounded=0;orthogonalLoop=1;jettySize=auto;html=1;exitX=1;exitY=0.5;exitDx=0;exitDy=0;entryX=0;entryY=0.5;entryDx=0;entryDy=0;" parent="033Ey61BHcnlwMV0V1Kq-67" source="033Ey61BHcnlwMV0V1Kq-99" target="033Ey61BHcnlwMV0V1Kq-100" edge="1">
          <mxGeometry relative="1" as="geometry" />
        </mxCell>
        <mxCell id="033Ey61BHcnlwMV0V1Kq-99" value="Quast (metagenomic)" style="rounded=1;whiteSpace=wrap;html=1;fontFamily=Helvetica;fontSize=11;fontColor=#000000;align=center;" parent="033Ey61BHcnlwMV0V1Kq-67" vertex="1">
          <mxGeometry x="194" y="40" width="80" height="60" as="geometry" />
        </mxCell>
        <mxCell id="033Ey61BHcnlwMV0V1Kq-113" style="edgeStyle=orthogonalEdgeStyle;rounded=0;orthogonalLoop=1;jettySize=auto;html=1;exitX=1;exitY=0.5;exitDx=0;exitDy=0;entryX=0;entryY=0.5;entryDx=0;entryDy=0;" parent="033Ey61BHcnlwMV0V1Kq-67" source="033Ey61BHcnlwMV0V1Kq-100" target="033Ey61BHcnlwMV0V1Kq-101" edge="1">
          <mxGeometry relative="1" as="geometry" />
        </mxCell>
        <mxCell id="033Ey61BHcnlwMV0V1Kq-100" value="Kraken" style="rounded=1;whiteSpace=wrap;html=1;fontFamily=Helvetica;fontSize=11;fontColor=#000000;align=center;" parent="033Ey61BHcnlwMV0V1Kq-67" vertex="1">
          <mxGeometry x="350" y="40" width="80" height="60" as="geometry" />
        </mxCell>
        <mxCell id="033Ey61BHcnlwMV0V1Kq-101" value="Kraken-translate" style="rounded=1;whiteSpace=wrap;html=1;fontFamily=Helvetica;fontSize=11;fontColor=#000000;align=center;" parent="033Ey61BHcnlwMV0V1Kq-67" vertex="1">
          <mxGeometry x="490" y="40" width="80" height="60" as="geometry" />
        </mxCell>
        <mxCell id="033Ey61BHcnlwMV0V1Kq-110" style="edgeStyle=orthogonalEdgeStyle;rounded=0;orthogonalLoop=1;jettySize=auto;html=1;exitX=0.5;exitY=1;exitDx=0;exitDy=0;entryX=0.5;entryY=0;entryDx=0;entryDy=0;" parent="dNxyNK7c78bLwvsdeMH5-19" source="033Ey61BHcnlwMV0V1Kq-97" target="033Ey61BHcnlwMV0V1Kq-98" edge="1">
          <mxGeometry relative="1" as="geometry" />
        </mxCell>
        <mxCell id="033Ey61BHcnlwMV0V1Kq-121" style="edgeStyle=orthogonalEdgeStyle;rounded=0;orthogonalLoop=1;jettySize=auto;html=1;exitX=0.5;exitY=0;exitDx=0;exitDy=0;entryX=0.5;entryY=1;entryDx=0;entryDy=0;" parent="dNxyNK7c78bLwvsdeMH5-19" source="033Ey61BHcnlwMV0V1Kq-101" target="033Ey61BHcnlwMV0V1Kq-120" edge="1">
          <mxGeometry relative="1" as="geometry" />
        </mxCell>
        <mxCell id="033Ey61BHcnlwMV0V1Kq-122" style="edgeStyle=orthogonalEdgeStyle;rounded=0;orthogonalLoop=1;jettySize=auto;html=1;entryX=1;entryY=0.5;entryDx=0;entryDy=0;" parent="dNxyNK7c78bLwvsdeMH5-19" source="033Ey61BHcnlwMV0V1Kq-120" target="033Ey61BHcnlwMV0V1Kq-118" edge="1">
          <mxGeometry relative="1" as="geometry">
            <Array as="points">
              <mxPoint x="940" y="465" />
              <mxPoint x="940" y="250" />
            </Array>
          </mxGeometry>
        </mxCell>
        <mxCell id="033Ey61BHcnlwMV0V1Kq-124" style="edgeStyle=orthogonalEdgeStyle;rounded=0;orthogonalLoop=1;jettySize=auto;html=1;entryX=0;entryY=0.5;entryDx=0;entryDy=0;dashed=1;" parent="dNxyNK7c78bLwvsdeMH5-19" source="dNxyNK7c78bLwvsdeMH5-23" target="033Ey61BHcnlwMV0V1Kq-86" edge="1">
          <mxGeometry relative="1" as="geometry">
            <Array as="points">
              <mxPoint x="50" y="60" />
              <mxPoint x="50" y="360" />
            </Array>
          </mxGeometry>
        </mxCell>
        <mxCell id="033Ey61BHcnlwMV0V1Kq-126" style="edgeStyle=orthogonalEdgeStyle;rounded=0;orthogonalLoop=1;jettySize=auto;html=1;entryX=0.5;entryY=0;entryDx=0;entryDy=0;dashed=1;" parent="dNxyNK7c78bLwvsdeMH5-19" source="dNxyNK7c78bLwvsdeMH5-30" target="033Ey61BHcnlwMV0V1Kq-90" edge="1">
          <mxGeometry relative="1" as="geometry">
            <Array as="points">
              <mxPoint x="300" y="70" />
              <mxPoint x="300" y="310" />
              <mxPoint x="570" y="310" />
            </Array>
          </mxGeometry>
        </mxCell>
        <mxCell id="033Ey61BHcnlwMV0V1Kq-127" style="edgeStyle=orthogonalEdgeStyle;rounded=0;orthogonalLoop=1;jettySize=auto;html=1;exitX=1;exitY=0.75;exitDx=0;exitDy=0;entryX=0.5;entryY=0;entryDx=0;entryDy=0;dashed=1;" parent="dNxyNK7c78bLwvsdeMH5-19" source="033Ey61BHcnlwMV0V1Kq-2" target="033Ey61BHcnlwMV0V1Kq-92" edge="1">
          <mxGeometry relative="1" as="geometry">
            <Array as="points">
              <mxPoint x="450" y="75" />
              <mxPoint x="450" y="230" />
              <mxPoint x="780" y="230" />
            </Array>
          </mxGeometry>
        </mxCell>
        <mxCell id="033Ey61BHcnlwMV0V1Kq-128" style="edgeStyle=orthogonalEdgeStyle;rounded=0;orthogonalLoop=1;jettySize=auto;html=1;exitX=1;exitY=0.75;exitDx=0;exitDy=0;entryX=0.5;entryY=0;entryDx=0;entryDy=0;dashed=1;" parent="dNxyNK7c78bLwvsdeMH5-19" source="033Ey61BHcnlwMV0V1Kq-4" target="033Ey61BHcnlwMV0V1Kq-96" edge="1">
          <mxGeometry relative="1" as="geometry">
            <Array as="points">
              <mxPoint x="590" y="75" />
              <mxPoint x="590" y="110" />
              <mxPoint x="690" y="110" />
              <mxPoint x="690" y="210" />
              <mxPoint x="880" y="210" />
            </Array>
          </mxGeometry>
        </mxCell>
        <mxCell id="033Ey61BHcnlwMV0V1Kq-129" style="edgeStyle=orthogonalEdgeStyle;rounded=0;orthogonalLoop=1;jettySize=auto;html=1;exitX=0;exitY=0.5;exitDx=0;exitDy=0;entryX=0;entryY=0.5;entryDx=0;entryDy=0;dashed=1;" parent="dNxyNK7c78bLwvsdeMH5-19" source="033Ey61BHcnlwMV0V1Kq-71" target="033Ey61BHcnlwMV0V1Kq-98" edge="1">
          <mxGeometry relative="1" as="geometry">
            <Array as="points">
              <mxPoint x="60" y="150" />
              <mxPoint x="60" y="600" />
            </Array>
          </mxGeometry>
        </mxCell>
        <mxCell id="033Ey61BHcnlwMV0V1Kq-130" style="edgeStyle=orthogonalEdgeStyle;rounded=0;orthogonalLoop=1;jettySize=auto;html=1;exitX=0;exitY=0.75;exitDx=0;exitDy=0;entryX=0.5;entryY=0;entryDx=0;entryDy=0;dashed=1;" parent="dNxyNK7c78bLwvsdeMH5-19" source="033Ey61BHcnlwMV0V1Kq-73" target="033Ey61BHcnlwMV0V1Kq-99" edge="1">
          <mxGeometry relative="1" as="geometry">
            <Array as="points">
              <mxPoint x="190" y="165" />
              <mxPoint x="190" y="450" />
              <mxPoint x="254" y="450" />
            </Array>
          </mxGeometry>
        </mxCell>
        <mxCell id="033Ey61BHcnlwMV0V1Kq-132" style="edgeStyle=orthogonalEdgeStyle;rounded=0;orthogonalLoop=1;jettySize=auto;html=1;entryX=0.5;entryY=0;entryDx=0;entryDy=0;dashed=1;" parent="dNxyNK7c78bLwvsdeMH5-19" source="033Ey61BHcnlwMV0V1Kq-77" target="033Ey61BHcnlwMV0V1Kq-100" edge="1">
          <mxGeometry relative="1" as="geometry">
            <Array as="points">
              <mxPoint x="510" y="220" />
              <mxPoint x="410" y="220" />
            </Array>
          </mxGeometry>
        </mxCell>
        <mxCell id="033Ey61BHcnlwMV0V1Kq-133" style="edgeStyle=orthogonalEdgeStyle;rounded=0;orthogonalLoop=1;jettySize=auto;html=1;entryX=1;entryY=0.5;entryDx=0;entryDy=0;dashed=1;" parent="dNxyNK7c78bLwvsdeMH5-19" source="033Ey61BHcnlwMV0V1Kq-79" target="033Ey61BHcnlwMV0V1Kq-101" edge="1">
          <mxGeometry relative="1" as="geometry">
            <Array as="points">
              <mxPoint x="620" y="600" />
            </Array>
          </mxGeometry>
        </mxCell>
        <mxCell id="033Ey61BHcnlwMV0V1Kq-134" style="edgeStyle=orthogonalEdgeStyle;rounded=0;orthogonalLoop=1;jettySize=auto;html=1;exitX=0.75;exitY=1;exitDx=0;exitDy=0;entryX=0;entryY=0.5;entryDx=0;entryDy=0;dashed=1;" parent="dNxyNK7c78bLwvsdeMH5-19" source="033Ey61BHcnlwMV0V1Kq-115" target="033Ey61BHcnlwMV0V1Kq-120" edge="1">
          <mxGeometry relative="1" as="geometry">
            <Array as="points">
              <mxPoint x="170" y="280" />
              <mxPoint x="170" y="465" />
            </Array>
          </mxGeometry>
        </mxCell>
      </root>
    </mxGraphModel>
  </diagram>
</mxfile>
